<?xml version="1.0" standalone="no"?>
<!DOCTYPE svg PUBLIC "-//W3C//DTD SVG 20010904//EN"
 "http://www.w3.org/TR/2001/REC-SVG-20010904/DTD/svg10.dtd">
<svg version="1.0" xmlns="http://www.w3.org/2000/svg"
 width="700.000000pt" height="700.000000pt" viewBox="0 0 700.000000 700.000000"
 preserveAspectRatio="xMidYMid meet">
<g transform="translate(0.000000,700.000000) scale(0.100000,-0.100000)"
fill="#000000" stroke="none">
<path d="M3280 6993 c-19 -1 -87 -8 -150 -14 -507 -48 -1041 -231 -1486 -509
-1421 -891 -2009 -2649 -1412 -4228 61 -161 206 -454 298 -600 157 -251 395
-535 609 -729 558 -504 1225 -804 1986 -893 155 -18 460 -24 620 -11 496 39
907 152 1330 366 217 109 341 186 528 326 1022 766 1543 2030 1361 3299 -84
588 -315 1141 -673 1615 -666 880 -1709 1393 -2811 1383 -91 -1 -181 -3 -200
-5z m638 -2237 c16 -8 42 -28 57 -44 25 -27 1152 -2035 1216 -2167 38 -79 38
-135 1 -206 -20 -39 -41 -62 -77 -84 l-48 -30 -326 -3 c-364 -3 -388 0 -451
57 -57 52 -936 1494 -952 1560 -8 34 -8 61 -1 87 6 22 74 199 152 394 154 385
171 414 257 446 46 17 129 13 172 -10z m-1103 -805 c22 -10 52 -31 67 -47 15
-16 204 -335 420 -709 l393 -680 0 -77 c0 -69 -3 -80 -30 -120 -17 -23 -51
-54 -75 -68 l-45 -25 -785 -3 c-432 -2 -804 0 -826 3 -119 17 -206 148 -176
264 15 61 779 1379 824 1423 60 59 156 75 233 39z"/>
</g>
</svg>
